<svg version="1.1" id="Layer_1" xmlns="http://www.w3.org/2000/svg" xmlns:xlink="http://www.w3.org/1999/xlink" x="0" y="0" viewBox="0 0 512 512" xml:space="preserve"><path d="M314.829 135.492h70.595c11.423 0 20.682-9.26 20.682-20.682V20.682C406.107 9.26 396.848 0 385.425 0H314.83c-76.282 0-138.341 62.06-138.341 138.341v49.913h-49.913c-11.422 0-20.682 9.26-20.682 20.682v94.127c0 11.423 9.26 20.682 20.682 20.682h49.913v167.572c0 11.423 9.26 20.682 20.682 20.682h94.127c11.423 0 20.682-9.259 20.682-20.682V323.746h49.913c9.49 0 17.763-6.458 20.065-15.666l23.532-94.127a20.684 20.684 0 00-20.064-25.698H311.98v-49.913a2.852 2.852 0 012.849-2.85zm-23.531 94.127h67.637l-13.191 52.763h-54.447c-11.423 0-20.682 9.259-20.682 20.682v167.572h-52.763V303.064c0-11.423-9.26-20.682-20.682-20.682h-49.913v-52.763h49.913c11.422 0 20.682-9.26 20.682-20.682v-70.595c0-53.473 43.503-96.977 96.977-96.977h49.913v52.763h-49.913c-24.38 0-44.214 19.835-44.214 44.214v70.595c0 11.422 9.26 20.682 20.683 20.682z"/></svg>