<svg version="1.1" id="Layer_1" xmlns="http://www.w3.org/2000/svg" xmlns:xlink="http://www.w3.org/1999/xlink" x="0" y="0" viewBox="0 0 512 512" xml:space="preserve"><path d="M502.954 47.189a20.679 20.679 0 00-23.559.196 212.055 212.055 0 01-49.557 25.948c-19.253-17.414-43.615-27.826-69.915-29.656-31.056-2.16-61.081 7.9-84.561 28.326a116.388 116.388 0 00-40.046 88.349c-85.248-7.609-139.14-61.55-177.09-108.986a20.68 20.68 0 00-35.353 5.239C21.925 58.974-.268 115.404 5.42 183.662c4.761 57.133 30.23 131.964 120.039 181.717-32.436 14.756-68.282 21.939-103.953 20.519a20.683 20.683 0 00-10.867 38.745c51.359 28.532 108.03 43.736 163.889 43.965.432.002.861.003 1.294.003 54.105-.001 106.379-13.938 151.246-40.336 42.898-25.241 78.416-61.759 102.715-105.603 26.162-47.206 39.427-101.75 39.427-162.186a117.196 117.196 0 00-.52-10.638 185.675 185.675 0 0042.719-80.667 20.678 20.678 0 00-8.455-21.992zm-70.657 80.881a20.681 20.681 0 00-5.793 18.607 75.577 75.577 0 011.344 13.874c0 101.956-44.378 186.544-121.756 232.072-60.586 35.649-133.037 43.933-203.609 25.057a269.266 269.266 0 0079.562-36.789 20.681 20.681 0 00-3.935-36.315C97.757 312.434 53.563 257.594 46.757 181.575c-2.536-28.334.707-54.721 4.766-74.501 16.638 17.909 37.384 37.227 62.129 53.407 42.771 27.966 90.663 42.146 142.346 42.146 11.423 0 20.682-9.26 20.682-20.682v-21.53a75.069 75.069 0 0125.829-57.202c15.146-13.175 34.51-19.665 54.543-18.27 20.026 1.393 38.311 10.502 51.487 25.648a20.677 20.677 0 0021.567 6.229 255.053 255.053 0 0016.941-5.757 144.596 144.596 0 01-14.75 17.007z"/></svg>