<svg xmlns="http://www.w3.org/2000/svg" width="30" height="23" viewBox="0 0 30 23"><g><g><path d="M18.464 6.64a3.47 3.47 0 1 0-6.938 0 3.47 3.47 0 0 0 6.938 0zm3.1 0c0 5.012-4.172 5.952-6.134 10.769a.47.47 0 0 1-.87-.002c-1.77-4.343-5.338-5.534-6.02-9.403C7.868 4.195 10.505.464 14.355.1a6.57 6.57 0 0 1 7.21 6.54zm3.402 6.268l4.465 9.173c.182.373-.01.678-.424.678H.993c-.415 0-.606-.305-.424-.678l4.465-9.173a.517.517 0 0 1 .424-.265h3.829c.118 0 .277.074.355.163.26.3.524.594.788.884.25.275.502.555.752.84H6.638a.517.517 0 0 0-.424.266l-2.958 6.076h23.488l-2.958-6.076a.517.517 0 0 0-.425-.266h-4.554c.25-.285.502-.565.753-.84.264-.291.53-.584.79-.884a.535.535 0 0 1 .355-.163h3.837c.162 0 .353.12.424.265z"/></g></g></svg>