<?xml version="1.0" encoding="utf-8"?><svg xmlns="http://www.w3.org/2000/svg" width="165" height="47" viewBox="0 0 165 47"><path d="M18.953 18.121v9.982h9.982v-9.982zm24.783-6.655a23.58 23.58 0 00-3.57-4.575 23.573 23.573 0 00-4.576-3.57v8.145zM18.953 46.61c7.438 1.467 15.449-.681 21.212-6.445 5.98-5.979 8.068-14.376 6.265-22.044H35.59v16.637H18.953V46.61zm-6.655-11.852H2.846a23.536 23.536 0 004.045 5.407 23.536 23.536 0 005.407 4.046zm0-6.655V11.466h16.637V.626C21.267-1.176 12.871.912 6.891 6.891 1.128 12.655-1.02 20.665.447 28.103zM90.632 25.718l-.076.235c-.14.466-.348 1.063-.622 1.793l-1.515 3.896h4.435l-1.524-3.913a18.837 18.837 0 01-.47-1.313zm4.056 10.645l-1.355-3.467h-5.402l-1.363 3.467H84.9l4.839-11.857h1.826l4.763 11.857zm-13.514 0l-6.345-10.098.042.816.042 1.405v7.877h-1.43V24.506h1.868l6.412 10.165a44.455 44.455 0 01-.101-2.39v-7.775h1.447v11.857zm-11.898-6.05c0-1.47-.404-2.59-1.212-3.358-.802-.774-1.966-1.162-3.492-1.162h-2.28v9.282h2.642c.87 0 1.632-.19 2.288-.572a3.778 3.778 0 001.524-1.65c.353-.717.53-1.565.53-2.54zm1.615 0c0 1.222-.238 2.294-.715 3.214a4.994 4.994 0 01-2.028 2.103c-.875.488-1.885.733-3.03.733h-4.434V24.506h3.921c2.009 0 3.557.505 4.645 1.515 1.094 1.004 1.641 2.434 1.641 4.291zm84.247-10.305V8.152h9.324v1.918h-6.841v2.98h6.328v1.918h-6.328v3.122h7.186v1.918zm-5.528-9.938v9.938h-2.482V10.07h-3.829V8.152h10.148v1.918zm-10.493 9.938V8.152h2.483v11.856zm-2.17-3.416c0 1.161-.432 2.05-1.296 2.667-.859.612-2.12.917-3.787.917-1.52 0-2.712-.269-3.576-.807-.864-.539-1.42-1.355-1.667-2.45l2.399-.395c.162.629.48 1.086.95 1.372.472.28 1.125.42 1.961.42 1.734 0 2.6-.527 2.6-1.581 0-.337-.1-.615-.302-.833-.197-.22-.477-.402-.842-.547-.359-.146-1.052-.323-2.078-.53-.887-.208-1.504-.374-1.852-.497a5.642 5.642 0 01-.942-.446 2.847 2.847 0 01-.716-.623 2.757 2.757 0 01-.462-.85 3.593 3.593 0 01-.16-1.119c0-1.071.4-1.89 1.203-2.457.808-.572 1.98-.858 3.518-.858 1.47 0 2.572.23 3.307.69.74.46 1.217 1.22 1.43 2.28l-2.406.328c-.124-.51-.376-.894-.758-1.152-.376-.258-.917-.388-1.624-.388-1.503 0-2.255.472-2.255 1.414 0 .309.078.561.236.758.162.196.4.364.715.504.314.135.95.306 1.91.514 1.139.241 1.952.465 2.44.673.494.202.884.44 1.17.715.286.27.505.595.656.976.152.376.228.811.228 1.305zm-14.432-2.567c0-1.279-.303-2.28-.908-3.004-.606-.73-1.456-1.094-2.55-1.094-1.111 0-1.97.362-2.575 1.086-.606.718-.909 1.722-.909 3.012 0 1.302.309 2.328.926 3.08.622.746 1.47 1.12 2.541 1.12 1.11 0 1.966-.365 2.567-1.095.605-.729.908-1.764.908-3.105zm2.533 0c0 1.234-.244 2.32-.732 3.257a5.075 5.075 0 01-2.095 2.154c-.909.494-1.97.74-3.181.74-1.862 0-3.324-.546-4.384-1.64-1.055-1.1-1.582-2.603-1.582-4.511 0-1.902.527-3.386 1.582-4.451 1.055-1.066 2.522-1.6 4.4-1.6 1.88 0 3.347.54 4.402 1.617 1.06 1.077 1.59 2.555 1.59 4.434zm-16.114-2.078c0-1.246-.735-1.868-2.205-1.868h-2.566v3.845h2.634c.684 0 1.211-.168 1.582-.505.37-.342.555-.833.555-1.472zm2.5-.042c0 .762-.175 1.444-.522 2.044a3.54 3.54 0 01-1.498 1.397c-.645.326-1.414.488-2.306.488h-2.945v4.174h-2.483V8.152h5.327c1.42 0 2.51.328 3.273.984.77.65 1.153 1.574 1.153 2.769zm-14.609 8.103v-7.674l.084-2.096c-.398 1.51-.692 2.561-.883 3.156l-2.138 6.614h-1.767l-2.137-6.614-.9-3.156c.067 1.302.1 2.163.1 2.584v7.186H86.98V8.152h3.324l2.12 6.63.185.64.404 1.59.53-1.901 2.18-6.96h3.307v11.857zm-14.608-5.983c0-1.279-.302-2.28-.908-3.004-.606-.73-1.456-1.094-2.55-1.094-1.11 0-1.97.362-2.575 1.086-.606.718-.909 1.722-.909 3.012 0 1.302.309 2.328.926 3.08.622.746 1.47 1.12 2.541 1.12 1.11 0 1.966-.365 2.567-1.095.606-.729.908-1.764.908-3.105zm2.533 0c0 1.234-.244 2.32-.732 3.257a5.074 5.074 0 01-2.095 2.154c-.909.494-1.97.74-3.18.74-1.864 0-3.325-.546-4.385-1.64-1.055-1.1-1.582-2.603-1.582-4.511 0-1.902.527-3.386 1.582-4.451 1.055-1.066 2.521-1.6 4.4-1.6 1.88 0 3.347.54 4.402 1.617 1.06 1.077 1.59 2.555 1.59 4.434zm-18.79 4.2c1.498 0 2.539-.753 3.122-2.256l2.163.816c-.466 1.145-1.15 1.997-2.053 2.558-.898.556-1.975.833-3.232.833-1.907 0-3.383-.538-4.426-1.615-1.038-1.083-1.557-2.595-1.557-4.536 0-1.946.502-3.442 1.506-4.485 1.005-1.043 2.46-1.565 4.368-1.565 1.391 0 2.524.28 3.4.841.874.556 1.489 1.375 1.842 2.457l-2.188.598a2.53 2.53 0 00-1.094-1.414c-.538-.353-1.175-.53-1.91-.53-1.122 0-1.974.348-2.558 1.043-.578.696-.867 1.714-.867 3.055 0 1.363.298 2.404.892 3.122.6.718 1.465 1.077 2.592 1.077z"/></svg>