<?xml version="1.0" encoding="utf-8"?><svg viewBox="0 0 512 512" xmlns="http://www.w3.org/2000/svg" xmlns:xlink="http://www.w3.org/1999/xlink"><style>:root>svg{display:none}:root>svg:target{display:block}</style><svg viewBox="0 0 20 13" id="arrow-right" xmlns="http://www.w3.org/2000/svg"><path d="M.866 7.664h16.18l-3.86 3.861a.866.866 0 101.224 1.225l5.339-5.34a.866.866 0 000-1.224l-5.34-5.34a.863.863 0 00-1.224 0 .865.865 0 000 1.225l3.861 3.862H.866a.866.866 0 000 1.731z"/></svg><svg viewBox="0 0 13 20" id="back" xmlns="http://www.w3.org/2000/svg"><path d="M10.997 19.677l.98-.981a.62.62 0 00.197-.452.62.62 0 00-.196-.45l-7.71-7.712 7.71-7.71a.62.62 0 00.196-.451.62.62 0 00-.197-.451l-.98-.981a.62.62 0 00-.452-.196.62.62 0 00-.45.196L.951 9.63a.62.62 0 00-.197.452c0 .17.066.32.197.45l9.142 9.144a.62.62 0 00.903 0z"/></svg><svg viewBox="0 0 20 21" id="close" xmlns="http://www.w3.org/2000/svg"><path d="M19.927 1.638L18.776.49 10 9.249 1.224.489.074 1.64l8.775 8.758-8.776 8.759 1.151 1.148L10 11.546l8.776 8.758 1.15-1.148-8.776-8.759z"/></svg><svg viewBox="0 0 512 512" id="facebook" xmlns="http://www.w3.org/2000/svg"><path d="M314.829 135.492h70.595c11.423 0 20.682-9.26 20.682-20.682V20.682C406.107 9.26 396.848 0 385.425 0H314.83c-76.282 0-138.341 62.06-138.341 138.341v49.913h-49.913c-11.422 0-20.682 9.26-20.682 20.682v94.127c0 11.423 9.26 20.682 20.682 20.682h49.913v167.572c0 11.423 9.26 20.682 20.682 20.682h94.127c11.423 0 20.682-9.259 20.682-20.682V323.746h49.913c9.49 0 17.763-6.458 20.065-15.666l23.532-94.127a20.684 20.684 0 00-20.064-25.698H311.98v-49.913a2.852 2.852 0 012.849-2.85zm-23.531 94.127h67.637l-13.191 52.763h-54.447c-11.423 0-20.682 9.259-20.682 20.682v167.572h-52.763V303.064c0-11.423-9.26-20.682-20.682-20.682h-49.913v-52.763h49.913c11.422 0 20.682-9.26 20.682-20.682v-70.595c0-53.473 43.503-96.977 96.977-96.977h49.913v52.763h-49.913c-24.38 0-44.214 19.835-44.214 44.214v70.595c0 11.422 9.26 20.682 20.683 20.682z"/></svg><svg viewBox="0 0 512 512" id="instagram" xmlns="http://www.w3.org/2000/svg"><path d="M373.659 0H138.341C62.06 0 0 62.06 0 138.341v235.318C0 449.94 62.06 512 138.341 512h235.318C449.94 512 512 449.94 512 373.659V138.341C512 62.06 449.94 0 373.659 0zm96.977 373.659c0 53.473-43.503 96.977-96.977 96.977H138.341c-53.473 0-96.977-43.503-96.977-96.977V138.341c0-53.473 43.503-96.977 96.977-96.977h235.318c53.473 0 96.977 43.503 96.977 96.977v235.318z"/><path d="M370.586 238.141c-3.64-24.547-14.839-46.795-32.386-64.342-17.547-17.546-39.795-28.746-64.341-32.385a114.73 114.73 0 00-33.682 0c-30.336 4.499-57.103 20.541-75.372 45.172-18.269 24.631-25.854 54.903-21.355 85.237 4.499 30.335 20.541 57.102 45.172 75.372 19.996 14.831 43.706 22.619 68.153 22.619 5.667 0 11.375-.418 17.083-1.265 30.336-4.499 57.103-20.541 75.372-45.172 18.27-24.63 25.855-54.901 21.356-85.236zm-102.795 89.491c-19.405 2.882-38.77-1.973-54.527-13.66-15.757-11.687-26.019-28.811-28.896-48.216-2.878-19.405 1.973-38.77 13.66-54.527 11.688-15.757 28.811-26.019 48.217-28.897a73.42 73.42 0 0121.545.001c32.231 4.779 57.098 29.645 61.878 61.877 5.94 40.058-21.817 77.482-61.877 83.422zM400.049 111.951a20.83 20.83 0 00-14.625-6.058 20.826 20.826 0 00-14.625 6.058 20.814 20.814 0 00-6.058 14.625 20.814 20.814 0 006.058 14.625 20.83 20.83 0 0014.625 6.058 20.826 20.826 0 0014.625-6.058 20.83 20.83 0 006.058-14.625 20.826 20.826 0 00-6.058-14.625z"/></svg><svg viewBox="0 0 512 512" id="twitter" xmlns="http://www.w3.org/2000/svg"><path d="M502.954 47.189a20.679 20.679 0 00-23.559.196 212.055 212.055 0 01-49.557 25.948c-19.253-17.414-43.615-27.826-69.915-29.656-31.056-2.16-61.081 7.9-84.561 28.326a116.388 116.388 0 00-40.046 88.349c-85.248-7.609-139.14-61.55-177.09-108.986a20.68 20.68 0 00-35.353 5.239C21.925 58.974-.268 115.404 5.42 183.662c4.761 57.133 30.23 131.964 120.039 181.717-32.436 14.756-68.282 21.939-103.953 20.519a20.683 20.683 0 00-10.867 38.745c51.359 28.532 108.03 43.736 163.889 43.965.432.002.861.003 1.294.003 54.105-.001 106.379-13.938 151.246-40.336 42.898-25.241 78.416-61.759 102.715-105.603 26.162-47.206 39.427-101.75 39.427-162.186a117.196 117.196 0 00-.52-10.638 185.675 185.675 0 0042.719-80.667 20.678 20.678 0 00-8.455-21.992zm-70.657 80.881a20.681 20.681 0 00-5.793 18.607 75.577 75.577 0 011.344 13.874c0 101.956-44.378 186.544-121.756 232.072-60.586 35.649-133.037 43.933-203.609 25.057a269.266 269.266 0 0079.562-36.789 20.681 20.681 0 00-3.935-36.315C97.757 312.434 53.563 257.594 46.757 181.575c-2.536-28.334.707-54.721 4.766-74.501 16.638 17.909 37.384 37.227 62.129 53.407 42.771 27.966 90.663 42.146 142.346 42.146 11.423 0 20.682-9.26 20.682-20.682v-21.393-.137a75.069 75.069 0 0125.829-57.202c15.146-13.175 34.51-19.665 54.543-18.27 20.026 1.393 38.311 10.502 51.487 25.648a20.677 20.677 0 0021.567 6.229 255.053 255.053 0 0016.941-5.757 144.596 144.596 0 01-14.75 17.007z"/></svg></svg>