<?xml version="1.0" encoding="utf-8"?><svg viewBox="0 0 512 512" xmlns="http://www.w3.org/2000/svg" xmlns:xlink="http://www.w3.org/1999/xlink"><style>:root>svg{display:none}:root>svg:target{display:block}</style><svg viewBox="0 0 20 13" id="arrow-right" xmlns="http://www.w3.org/2000/svg"><path d="M.866 7.664h16.18l-3.86 3.861a.866.866 0 101.224 1.225l5.339-5.34a.866.866 0 000-1.224l-5.34-5.34a.863.863 0 00-1.224 0 .865.865 0 000 1.225l3.861 3.862H.866a.866.866 0 000 1.731z"/></svg><svg viewBox="0 0 13 20" id="back" xmlns="http://www.w3.org/2000/svg"><path d="M10.997 19.677l.98-.981a.62.62 0 00.197-.452.62.62 0 00-.196-.45l-7.71-7.712 7.71-7.71a.62.62 0 00.196-.451.62.62 0 00-.197-.451l-.98-.981a.62.62 0 00-.452-.196.62.62 0 00-.45.196L.951 9.63a.62.62 0 00-.197.452c0 .17.066.32.197.45l9.142 9.144a.62.62 0 00.903 0z"/></svg><svg viewBox="0 0 20 21" id="close" xmlns="http://www.w3.org/2000/svg"><path d="M19.927 1.638L18.776.49 10 9.249 1.224.489.074 1.64l8.775 8.758-8.776 8.759 1.151 1.148L10 11.546l8.776 8.758 1.15-1.148-8.776-8.759z"/></svg><svg viewBox="0 0 512 512" id="facebook" xmlns="http://www.w3.org/2000/svg"><path d="M297.277 508.668zm0 0M302.398 507.793c-1.02.187-2.039.36-3.058.535 1.02-.176 2.039-.348 3.058-.535zm0 0M285.137 510.34zm0 0M290.055 509.738zm0 0M309.367 506.41zm0 0M326.664 502.113c-.726.207-1.453.403-2.18.606.727-.203 1.454-.399 2.18-.606zm0 0M321.434 503.543c-.79.207-1.582.418-2.375.617.793-.2 1.586-.406 2.375-.617zm0 0M314.59 505.254c-.836.195-1.68.379-2.524.566.844-.187 1.688-.37 2.524-.566zm0 0M277.527 511.09zm0 0M512 256C512 114.637 397.363 0 256 0S0 114.637 0 256s114.637 256 256 256c1.504 0 3-.031 4.5-.059V312.656h-55V248.56h55V201.39c0-54.703 33.395-84.477 82.191-84.477 23.368 0 43.454 1.742 49.309 2.52v57.171h-33.648c-26.547 0-31.688 12.618-31.688 31.13v40.824h63.477l-8.274 64.097h-55.203V502.11C433.668 471.434 512 372.852 512 256zm0 0M272.914 511.43zm0 0M264.754 511.836zm0 0"/></svg><svg viewBox="0 0 512 512" id="instagram" xmlns="http://www.w3.org/2000/svg"><path d="M305 256c0 27.063-21.938 49-49 49s-49-21.938-49-49 21.938-49 49-49 49 21.938 49 49zm0 0"/><path d="M370.594 169.305a45.546 45.546 0 00-10.996-16.903 45.514 45.514 0 00-16.903-10.996c-5.18-2.011-12.96-4.406-27.293-5.058-15.504-.707-20.152-.86-59.402-.86-39.254 0-43.902.149-59.402.856-14.332.656-22.118 3.05-27.293 5.062a45.483 45.483 0 00-16.903 10.996 45.572 45.572 0 00-11 16.903c-2.011 5.18-4.406 12.965-5.058 27.297-.707 15.5-.86 20.148-.86 59.402 0 39.25.153 43.898.86 59.402.652 14.332 3.047 22.114 5.058 27.293a45.563 45.563 0 0010.996 16.903 45.514 45.514 0 0016.903 10.996c5.18 2.015 12.965 4.41 27.297 5.062 15.5.707 20.144.856 59.398.856 39.258 0 43.906-.149 59.402-.856 14.332-.652 22.118-3.047 27.297-5.062a48.68 48.68 0 0027.899-27.899c2.011-5.18 4.406-12.96 5.062-27.293.707-15.504.856-20.152.856-59.402 0-39.254-.149-43.902-.856-59.402-.652-14.332-3.047-22.118-5.062-27.297zM256 331.485c-41.691 0-75.488-33.794-75.488-75.485s33.797-75.484 75.488-75.484c41.688 0 75.484 33.793 75.484 75.484S297.688 331.484 256 331.484zm78.469-136.313c-9.742 0-17.64-7.899-17.64-17.64s7.898-17.641 17.64-17.641 17.64 7.898 17.64 17.64c-.004 9.742-7.898 17.64-17.64 17.64zm0 0"/><path d="M256 0C114.637 0 0 114.637 0 256s114.637 256 256 256 256-114.637 256-256S397.363 0 256 0zm146.113 316.605c-.71 15.649-3.199 26.333-6.832 35.684a75.164 75.164 0 01-42.992 42.992c-9.348 3.633-20.035 6.117-35.68 6.832-15.675.715-20.683.887-60.605.887-39.926 0-44.93-.172-60.61-.887-15.644-.715-26.331-3.199-35.68-6.832a72.018 72.018 0 01-26.038-16.957 72.044 72.044 0 01-16.953-26.035c-3.633-9.348-6.121-20.035-6.832-35.68-.723-15.68-.891-20.687-.891-60.609s.168-44.93.887-60.605c.71-15.649 3.195-26.332 6.828-35.684a72.013 72.013 0 0116.96-26.035 72.003 72.003 0 0126.036-16.957c9.352-3.633 20.035-6.117 35.684-6.832C211.07 109.172 216.078 109 256 109s44.93.172 60.605.89c15.649.712 26.332 3.196 35.684 6.825a72.061 72.061 0 0126.04 16.96 72.027 72.027 0 0116.952 26.036c3.637 9.352 6.121 20.035 6.836 35.684.715 15.675.883 20.683.883 60.605s-.168 44.93-.887 60.605zm0 0"/></svg><svg viewBox="0 0 165 47" id="logo" xmlns="http://www.w3.org/2000/svg"><path d="M18.953 18.121v9.982h9.982v-9.982zm24.783-6.655a23.58 23.58 0 00-3.57-4.575 23.573 23.573 0 00-4.576-3.57v8.145zM18.953 46.61c7.438 1.467 15.449-.681 21.212-6.445 5.98-5.979 8.068-14.376 6.265-22.044H35.59v16.637H18.953V46.61zm-6.655-11.852H2.846a23.536 23.536 0 004.045 5.407 23.536 23.536 0 005.407 4.046zm0-6.655V11.466h16.637V.626C21.267-1.176 12.871.912 6.891 6.891 1.128 12.655-1.02 20.665.447 28.103zM90.632 25.718l-.076.235c-.14.466-.348 1.063-.622 1.793l-1.515 3.896h4.435l-1.524-3.913a18.837 18.837 0 01-.47-1.313zm4.056 10.645l-1.355-3.467h-5.402l-1.363 3.467H84.9l4.839-11.857h1.826l4.763 11.857zm-13.514 0l-6.345-10.098.042.816.042 1.405v7.877h-1.43V24.506h1.868l6.412 10.165a44.455 44.455 0 01-.101-2.39v-7.775h1.447v11.857zm-11.898-6.05c0-1.47-.404-2.59-1.212-3.358-.802-.774-1.966-1.162-3.492-1.162h-2.28v9.282h2.642c.87 0 1.632-.19 2.288-.572a3.778 3.778 0 001.524-1.65c.353-.717.53-1.565.53-2.54zm1.615 0c0 1.222-.238 2.294-.715 3.214a4.994 4.994 0 01-2.028 2.103c-.875.488-1.885.733-3.03.733h-4.434V24.506h3.921c2.009 0 3.557.505 4.645 1.515 1.094 1.004 1.641 2.434 1.641 4.291zm84.247-10.305V8.152h9.324v1.918h-6.841v2.98h6.328v1.918h-6.328v3.122h7.186v1.918zm-5.528-9.938v9.938h-2.482V10.07h-3.829V8.152h10.148v1.918zm-10.493 9.938V8.152h2.483v11.856zm-2.17-3.416c0 1.161-.432 2.05-1.296 2.667-.859.612-2.12.917-3.787.917-1.52 0-2.712-.269-3.576-.807-.864-.539-1.42-1.355-1.667-2.45l2.399-.395c.162.629.48 1.086.95 1.372.472.28 1.125.42 1.961.42 1.734 0 2.6-.527 2.6-1.581 0-.337-.1-.615-.302-.833-.197-.22-.477-.402-.842-.547-.359-.146-1.052-.323-2.078-.53-.887-.208-1.504-.374-1.852-.497a5.642 5.642 0 01-.942-.446 2.847 2.847 0 01-.716-.623 2.757 2.757 0 01-.462-.85 3.593 3.593 0 01-.16-1.119c0-1.071.4-1.89 1.203-2.457.808-.572 1.98-.858 3.518-.858 1.47 0 2.572.23 3.307.69.74.46 1.217 1.22 1.43 2.28l-2.406.328c-.124-.51-.376-.894-.758-1.152-.376-.258-.917-.388-1.624-.388-1.503 0-2.255.472-2.255 1.414 0 .309.078.561.236.758.162.196.4.364.715.504.314.135.95.306 1.91.514 1.139.241 1.952.465 2.44.673.494.202.884.44 1.17.715.286.27.505.595.656.976.152.376.228.811.228 1.305zm-14.432-2.567c0-1.279-.303-2.28-.908-3.004-.606-.73-1.456-1.094-2.55-1.094-1.111 0-1.97.362-2.575 1.086-.606.718-.909 1.722-.909 3.012 0 1.302.309 2.328.926 3.08.622.746 1.47 1.12 2.541 1.12 1.11 0 1.966-.365 2.567-1.095.605-.729.908-1.764.908-3.105zm2.533 0c0 1.234-.244 2.32-.732 3.257a5.075 5.075 0 01-2.095 2.154c-.909.494-1.97.74-3.181.74-1.862 0-3.324-.546-4.384-1.64-1.055-1.1-1.582-2.603-1.582-4.511 0-1.902.527-3.386 1.582-4.451 1.055-1.066 2.522-1.6 4.4-1.6 1.88 0 3.347.54 4.402 1.617 1.06 1.077 1.59 2.555 1.59 4.434zm-16.114-2.078c0-1.246-.735-1.868-2.205-1.868h-2.566v3.845h2.634c.684 0 1.211-.168 1.582-.505.37-.342.555-.833.555-1.472zm2.5-.042c0 .762-.175 1.444-.522 2.044a3.54 3.54 0 01-1.498 1.397c-.645.326-1.414.488-2.306.488h-2.945v4.174h-2.483V8.152h5.327c1.42 0 2.51.328 3.273.984.77.65 1.153 1.574 1.153 2.769zm-14.609 8.103v-7.674l.084-2.096c-.398 1.51-.692 2.561-.883 3.156l-2.138 6.614h-1.767l-2.137-6.614-.9-3.156c.067 1.302.1 2.163.1 2.584v7.186H86.98V8.152h3.324l2.12 6.63.185.64.404 1.59.53-1.901 2.18-6.96h3.307v11.857zm-14.608-5.983c0-1.279-.302-2.28-.908-3.004-.606-.73-1.456-1.094-2.55-1.094-1.11 0-1.97.362-2.575 1.086-.606.718-.909 1.722-.909 3.012 0 1.302.309 2.328.926 3.08.622.746 1.47 1.12 2.541 1.12 1.11 0 1.966-.365 2.567-1.095.606-.729.908-1.764.908-3.105zm2.533 0c0 1.234-.244 2.32-.732 3.257a5.074 5.074 0 01-2.095 2.154c-.909.494-1.97.74-3.18.74-1.864 0-3.325-.546-4.385-1.64-1.055-1.1-1.582-2.603-1.582-4.511 0-1.902.527-3.386 1.582-4.451 1.055-1.066 2.521-1.6 4.4-1.6 1.88 0 3.347.54 4.402 1.617 1.06 1.077 1.59 2.555 1.59 4.434zm-18.79 4.2c1.498 0 2.539-.753 3.122-2.256l2.163.816c-.466 1.145-1.15 1.997-2.053 2.558-.898.556-1.975.833-3.232.833-1.907 0-3.383-.538-4.426-1.615-1.038-1.083-1.557-2.595-1.557-4.536 0-1.946.502-3.442 1.506-4.485 1.005-1.043 2.46-1.565 4.368-1.565 1.391 0 2.524.28 3.4.841.874.556 1.489 1.375 1.842 2.457l-2.188.598a2.53 2.53 0 00-1.094-1.414c-.538-.353-1.175-.53-1.91-.53-1.122 0-1.974.348-2.558 1.043-.578.696-.867 1.714-.867 3.055 0 1.363.298 2.404.892 3.122.6.718 1.465 1.077 2.592 1.077z"/></svg><svg viewBox="0 0 30 23" id="p1" xmlns="http://www.w3.org/2000/svg"><path d="M18.464 6.64a3.47 3.47 0 10-6.938 0 3.47 3.47 0 006.938 0zm3.1 0c0 5.012-4.172 5.952-6.134 10.769a.47.47 0 01-.87-.002c-1.77-4.343-5.338-5.534-6.02-9.403C7.868 4.195 10.505.464 14.355.1a6.57 6.57 0 017.21 6.54zm3.402 6.268l4.465 9.173c.182.373-.01.678-.424.678H.993c-.415 0-.606-.305-.424-.678l4.465-9.173a.517.517 0 01.424-.265h3.829a.54.54 0 01.355.163c.26.3.524.594.788.884.25.275.502.555.752.84H6.638a.517.517 0 00-.424.266l-2.958 6.076h23.488l-2.958-6.076a.517.517 0 00-.425-.266h-4.554c.25-.285.502-.565.753-.84.264-.291.53-.584.79-.884a.535.535 0 01.355-.163h3.837c.162 0 .353.12.424.265z"/></svg><svg fill="#4d4d4d" viewBox="0 0 512 512" id="pin" xmlns="http://www.w3.org/2000/svg"><path d="M256 0C150.125 0 64 86.135 64 192c0 141.646 177.146 310 184.688 317.104C250.75 511.031 253.375 512 256 512s5.25-.969 7.313-2.896C270.854 502 448 333.646 448 192 448 86.135 361.875 0 256 0zm0 298.667c-58.813 0-106.667-47.854-106.667-106.667S197.188 85.333 256 85.333 362.667 133.188 362.667 192 314.813 298.667 256 298.667z"/></svg><svg viewBox="0 0 512 512" id="twitter" xmlns="http://www.w3.org/2000/svg"><path d="M256 0C114.637 0 0 114.637 0 256s114.637 256 256 256 256-114.637 256-256S397.363 0 256 0zm116.887 199.602c.113 2.52.168 5.05.168 7.593 0 77.645-59.102 167.18-167.184 167.184h.004-.004c-33.184 0-64.062-9.727-90.066-26.395 4.597.543 9.277.813 14.015.813 27.532 0 52.868-9.39 72.98-25.152-25.722-.477-47.41-17.465-54.894-40.813a58.481 58.481 0 0011.043 1.063c5.363 0 10.559-.723 15.496-2.07-26.886-5.384-47.14-29.145-47.14-57.598 0-.266 0-.504.007-.75a58.354 58.354 0 0026.614 7.347c-15.778-10.527-26.149-28.523-26.149-48.91a58.597 58.597 0 017.957-29.535c28.977 35.555 72.282 58.937 121.118 61.394a58.708 58.708 0 01-1.528-13.398c0-32.437 26.317-58.754 58.766-58.754 16.902 0 32.168 7.145 42.89 18.567a117.855 117.855 0 0037.313-14.262c-4.395 13.715-13.707 25.222-25.84 32.5 11.887-1.422 23.215-4.574 33.742-9.254a119.412 119.412 0 01-29.308 30.43zm0 0"/></svg></svg>